/* XPM */
static char *ClaimedE1736170627[] = {
/* columns rows colors chars-per-pixel */
"128 128 18 1 ",
"  c #8D8A82",
". c #908D85",
"X c #939088",
"o c #97938B",
"O c #89867F",
"+ c #86837C",
"@ c #9B988F",
"# c #827F78",
"$ c #A19D94",
"% c #52504B",
"& c #5C5A55",
"* c #7D7A73",
"= c #66645E",
"- c #464540",
"; c #77746D",
": c #6F6C66",
"> c #373633",
", c #ABA79E",
/* pixels */
":;*=&;;;::::=:::=:=&%%=&&===;;&%%%&o@X$$@@+.@$,,,$ +O X*%&==;;*:::;*;=&%&&%%%%%%&&&&=:;::=::&&&&=&==; X ##;**===&%&&=&&%= X  O**",
"=+$X.oXX..Xo+*;;#.o :&;;:;*# O*;=--+ o$XXO* X,@.oO +Xo..;-&&==&&==:*;&-%-;##*#*#**&%%&----&&%&=:#*#.XXo #  O.;%&:=&=&&::+ @@@XX+",
":o$X,$@@o@$@@$@@$,,,$+X$$$@@$@@$,#>&O@$@++XoX@+*OoXO@$X*&% O @+.@X@@$O%=#.@$Xo.o@Xo##+#*;#+*+Oo@@@....o+#Xoooo:=@oX@Xoo... .Xo +",
":o$@$$@..$$ooo$$,,,,o:OX$$$$$o .$,%-&:#*##;;:&%&:+;;**=->:$@@$$$@.@$$o%*,@.@o.   X.+  X ..Xooo . X + .X##... o=;@o.@X.X. .X.XX.O",
":o$$$$@@Xo$$@o$,,,,,.-;$$,$$$XX .XXO&%===&&&&&-=;=&%%-%== $@o@@@$o@$$@& $X   O+O. +OO OO  o@X.O  XXO Xo.+  O+.=O@. oo. .o... X.;",
";@@o$$@oo@$$$@,,,,,$+-#@@o@$o..Xo@@@ o.@oO:%# OXXoOOO XO @@@X@o@@o@@@o:ooX*O+#++O O#OOO O X.  OOXo XoXX # .  +&Oo.. .o. X@ .. .:",
"#$@@$$$@@@$,$$,,,,,$#& o$o@,o o@$o. .@@@$$#&O@o.OXo$ooX#Oo@@o@Xo@oXo@@;oo+#+#++#+O+*#####O  OOOOOO+O...+O..++#&.o@o.OX.+XX.XXX =",
"#$$$,$$,@XX$$,,,,,,,:&@$$,$$$X@@X Xo@$@@@@;% oXo. X@O....@@@oooo$o@@@o= #*+O*#+OOOO*#+####*#++++O+#  X  XO O# =OXoooX. X. .... :",
"#X$$$$,$oo@@,,,,,,@$&-X,$,,@oooo@oo$,@$@@@*&O@@.oo.oo XXo@X@@@@$$@@oo = OOO###+#OOO+++OOO##O####++ #OX .X . OO=ooo..XXooXO.XX O=",
":#+ XoXXoooooooo.oX;--#@$$$,$@@o.XXo@X..X =%:#;##*:&&%%===%&&&::*oX*:=%::;;:;*++ O#*#*O*###O#;*++OOOOOO X. ..O&+ . . oo.X..oo O=",
"&=&===-%=&&%&&----%>-&-%::-%&&&&=&&&=&&%%%-----%-%>>---%---%%----&%>%=&-->-%----&:&%%%=-%%%:=%--%%&:* ..XX @ *%%&-%*.XX..O.$oO ;",
"&&&;*:&&=&===&%%%-%%&&%%%-->>-%&&=&&&%-%%%&&&&&&=::;OO+.O+  o.#*=>--; #*;:=:::=>>%%&=:::;;;#;::&%->>%%&=&=:;=:** =&-*.Xo #.o...O",
"&;X@$$XX@@.X o,.*O+  o.O#;--;.oo++O ++ X o .. && X   oXoo.O.XXXX.:-*oXOOO;# .XX&=;#Oooo@oX.++O . O+=>>%;;#;*# .. @o-:oooo.@@@X.X",
"&+$@$$@$,o XOX$,OX$oXX+@$@;-o@ .XX .@$@$$,$ooO%% XO.OXO.Xo.X*:o.o %Oo.OO##.X o#:O*+X$X@@X .#  ..O..O=-;@X...  +  ..::.XX  ooX.o@",
"= .@$.+@$;+o*oX@# ,o;#.$,$&-@ooX.   .$@@$,,o. +&#..@XXo@oX..O+... %::;+#;*+*;#:=O##.. $$Xo.oo.OOO   o&:XX  ...X..  ==. OO+ Xo@@+",
";o@X+OX@.# .##@$@o$O+*+oX+--$,,$@XOXX$,$,,$o$ .=;oo@@.Xo$oXX  O*OO->-%=:==&%%&%>=##.oo$$Xo..o    + X &:o.O X.O  ...*%#.X .$oo@.:",
";X. o@@$@$@.O#,X$#X;#  o$$%=,$$$oo@@..,,,$$.,..%:@,X. X@@@oX.. *;*-= ++**  O .#%-#  $XXXXo.X. . OO . &:oO#O+O+O..+. &;X.OO@oXXX:",
";.@$oooo.X.#+.o;@*.;+o. @,&%,@o$Oo$o.$,,@$$.@ .%=OO+XX@oo$@o+O*#*;%=+#**O   oo +&=#O X X$@Xo.  O+##O.%:o.O+O .O+++ O::X.. XXX..=",
"#o$o.o@@X@@@.@.*O+** @@o@,%%,$, O$$oO$,,o@.X$ #%--&==;=%%&;=-->-%%%;*#;*O#*#+.o :-*O Xo@$o.@o@@O +#OO%:XX #  O O  . ;:. X. X@oX:",
"*XX+X$o.X@ .#@,o+  oX$,$$,&%,oo@@$,$$,,$@$o@,. %>=:%%%%-%&=%%&==%%;O+**#+;*#OX O:%* .o@$@$Xo@@. OOO+O=:X.O#O. O*;;:;==&-%%%&;++&",
"+.. X...X.Xo .$.# . .O@,o,&-Xo@$,$,,,,,$,,o,,,.-=@O+.XX.+X **O++O=#+ #*OO+OO..O+:&;OX@@,$@X@@ O. OO++*-%%--%&==&=&%:=&&&&=&=:==&",
"#..o .o@XX. #oo  +$@@$@@@,=>*$@$@@@  OX$$o  #+%-oO#X  . ++++ +*O &*+  o.OX@o +O#:&*X@$,@$$@oX + OOO++:%&-&&==;+O.#+O*#++oooX..#=",
": . #.oX#XOOO+**O .@.+XX@@&>>--%---=&-&:::%>>>-* +o+*OOOooo++.O o;*   X .ooX  ;;;%*oo@,@@$o. O +OO   =*o+. O   ..+OOO X..XoXo..*",
"=OXOOX## X. #* #OX$,.OXXoX&>>>>::%=o.&%&:::&=&:. oO*# o#O. O  +oX:;  +O+.X OO .X#%;+OO .X@XX +OOO+#OO&+.O++O++O ++OOOOO.XooXo@X+",
"=+ #O.+OX@#   X   .Xo.$$.X.->= Xo$,,o;&=***;*$#*. #  +Xoo@ #.O . ==+ OO XoO .O X*%-%%%--%=:;+O O +#+ =O O OO+O+OOO +O  OoX@Xooo#",
"=OX+ $  o.#X.XoXo@o o$ +ooo-&o@oX@$oOO%%#;;;;;**#*OX..XX.o.+O+.+#%=.+;*O  #.OO. :&-&=%--->->% OO O   :#.    O . ++OOOO ..ooX.o@*",
": o. X.ooo.XO*.+.O###@o.oo*>=$@oo@$X@o-&**;;*****# XX@o Xo. O# O#%*o. *OX .O .+O+%&. OX.***;%+oOOOO  :#+ . .O.@.O  O+O. .. ..@@#",
"=.o  O .XXo.O  +****;O o$,:>=.@.oo$@oo-&*O +O#OXoOOO.X. X@X  *O +%OoXoX..X.OOOOO+&=X O##OX.o=#Xo.#OO.;*;+ .X    OOOO+ .XXX..o@X#",
"=XXOo.  oOO XX#*X.O#O  o@ =-*O#+oo.@$o-%;##O##. +*++oX+ X@.+##O..&OoX@O oX.. X O*&=.  OO.  X=*.++  O.;%    .O   OOO+OO XX.oX@@@*",
"& XX.XoX.*OO#* O#  O   .+*%& $X+# oX,$%%#X@+#X ##+OO+X . O . OO+o%#@$$o@o O .o .#%=OO +O .O =*.OO. # #-*.   +.OO+++ O+O.XXXX Xo#",
"=.$,$oOO +# .O.O# Xoo$,X+#--.#++ +O$$$%&XO ..oO    .#OXX...X..XO;-O++==O+Xo@.  .;-=+** ..X+X&-.+#+#*#O%;. . O +O+#+O +.oX .. Xo;",
"&+ OX O.@ooX*X #+X+O #*;&%-;$ +@$$@,,@&-o.*o$o*+ +X..X.oXo@o.@@*>>--%->---&=OXXX;>=X# X.o. o->;+OO   +=+X   +OO+##++. X@o...X@o;",
"&&%-%--&&=;=-==&&%------>%+$  @oX$@@.+=- X=;;+:::::;:;;;::::::%>>&&:+#+;:&%>>=:%--*#+.X. #XO%>--&:;**:&:#. O O O+O+O  oXO.X.XoX:",
"=::;;;:=:&%%=::=--->>-%=;Xo#+X$..o +* :-%&&%%%-&&%&=&&->>>>---%=O@o ##o@@$@ ->>-&#O...o.+O.O%->-=&%%>->%#X. ##OO O+OO   + oXXo =",
";o@X.X#++#O.Xo . O;-% X+*XO +  X.X$ +.:%%*#+#* X#+o . O=>-#o#O@@ooX.   .X@o@%>:*#  O  .  OO &&#+.. *:%>>%*.O#oX+ .O O.   .ooo@ =",
"#@XXX O*;+XO.Ooo+O.&&o+#. .X+X$.o@$O  *&;XoX@@ ##O  ..X &* . . .oo.. o +.@X.%%X+# O#   . . O=%X.##.XoO;=--:#:;X. X .   O XX X$+&",
"O$o.##.#Xo O ;o # .&&. o O. +OOOo.o#.$:=+#o+@ #  X..X.o*=X+OO .X.Xoo.o OXX..:;X##+  ..  ..OO=&OX+O X...XO;* #%=X .O.   O ooXX@+=",
".$o.oo+O .XoO;###+O=&..o ..+ $,$.  #.$=:X$$oX### X.OX+.#%OO  O.OO..@X .oX Xo=; #O++ X.#OO.. ;&OXO O ...XX..O #%#o... ..O X. X$ :",
"@@oo+ *##X+# o++O#O==Xoo@XXo@,$,@+#..o&=$$X$$ OO@XXX+O.#>: .Xo@ #O OOOX@@XX@=-OO ** *# #OXo &&.XOOO   XX... O#-*o... O X    .@#&",
"$o@X#oO XO..#+#;#..==O.@+Oo@$$$,$$. #+%=$X+$.++o #.o+  #-=o+ O oX#++#. OXXo@=>:::#*&-&;:&&:;--*o +  OOXXXXoX.*>#.O+O.oXo.O O. :&",
"ooo oXO#X X:++*#++#&&##o o$oX$,,,$.Xo#>:@,@ +#OXO*  ..+#=:OO   OO**;#O+*#.XX:>--&+O#O#**:%->>%.o +O .X@oX . X#-= #    #O +++.=-:",
"o@oX++## ##*o#O+OOO&>%&:*O +.@$$@@XO*%>=o@ ;oXXX O. .+++:;#O#OO.X.+#;:;O +O.&&*#   .o..X   %>%ooX O.XXo@XO   o:>:;;#;==:;:==:&&;",
"O$oX.X .O*O+#+X.   *&-%--%%-%%-%-%&->>>=+O+ oO o# o  + X;;.+# OO  #XOOO. O #&OX..X ..  .  oO&%XX O+ ..OoX    *%&# +OOo@.oXo +X=&",
"+,$@@ .ooOO*+.O.OO OO  #+O==&>=oO+  :->:X$o@oX.+O.Xo+OXo#;..X.*+O*O.;.XO +++=.X ..XX. .XX. .#= OO    ..o  OO.=> X  oO $O .oX@@*-",
"*,@o@X# @.*+  ++O.XOOXo o@#.:%@,,,,,$*>#,$o$o@$..+  O.XoO=OoOO+# O+*;;OoXXX;%X.... o@ oXoX  #% OX OX.O XO..X@#=OX.Xo+ o .ooo@$#&",
";@oooX#;$.#+.X#+O X#O@O oO.O=:,@o,,,$O>#$,O+XO+*O# .+#..O%%*O O;+O**;O+*:==>&. X.  @OOoX@ ..*-*XX +.. ..O  *.:&O.# X ...  oo@$+%",
":X@$ #o#OoO#.+* O  O O+...O$X&oo@$$$@o%%XoO$OO#OXO#*;++O#->-&=%>-==&-&&%&&%>-o    Xo# XO.X.+*-:*+OOO XX   O# :%X...  Xoo.ooX.o+-",
":o$$#OX #O#+ **+O.X o@ ## .oO-#XX.X@$ %*$o,,$ #O+#*=:*;O*-=:=:===:;::=:*#+ :>=X X@X+#.o.XO O+:=&;O+OO. O##*# :%X.OO+.@oX.o@XX@ %",
":o@o  oo+O +O#+OO...@$OX OO##-:oX#+ .*%*$,$$O*O.#**;###*:=.O+.X #O +**. O.oo*& X@o++;o O. .o.#%:*OXX O*;=O**.=- @+X .+#+.X Xo@X&",
":@XX..@X@@ O. +#  o oX..Xo O+&;$oO*@ #&=.#X$ *OXO##OoO  ;=#O#O #+O +;#O.X  OX;*@@ O#;+#. +@@@*-%=#*;+*;;+o# X=% @o  .   XXX.o@X=",
"=ooX XXo@oo O.;+ O@ OX.O.@X@O-:$;++O#*-%** o+* o#O*OO++O=-#X++##*#O## OO #+ O==o@ ##OO O+ XXX+->-==&-%*;;*+;:&:.X.++ .X. .oXoo.&",
":o@@@o*o@$XX++#OOXXXo. oXX++#&&*:+#;;;&-&+oX###O#+++##O#-%  #o.O.O OO O+O#+# ;&X.O#O.  +OO+* *-=#o@.;::&%%->-;X  . X...@oX ..X.=",
"; +$$o#.$oX$@ oo+ X X+*. .+.O%&**###*+ -&$@.#.O#+Oo.O O&>;O+Oo+#*#+.o  + O OX;%..*+O#+OO  O***-; @@X$oX.OO*&:. ... X  o$$@.X$o =",
":..oX  $,oo #O.X#.@.#+ .XXoO#%;O*:#**##%-=*;; +#OooOOX&>=  +. **#O OO#+O  X $;%O+O..+ X. .. #;& o..o. Xo   ;:  ...   oX@@XX$$$X:",
"=.@X.o@$$ ++O.@X+.@.OXXO  O*=%#*;*#OO+*&%-=:&=&=%&=&:&>%+O +X####+ OX ..+. O.:=oX. ++OX#**O.X#:@@@X.    oo == O.. ...XXXXXX@o@X=",
"%&=:=%=O +.@@.o  X..oo  X+*=>=O;*** .#;&==.o+*#*:=%--->%. O+*;* O  O X.+ XO#O:% .O O+O.#+O++O*%.@... .  O.o;=. OO  .oX$$XXo@$$+%",
"%%:#:%%&&&::===::*;;;O.+*:=->%&=;;*#+O;%=O+O. O #X.#**%>*oX#O . .+ ..++.,o*#X=>--=;=;;#:===:=%-&*O   X.@@..*: .X X.X.$$,@ooo@@#&",
"* XX$@##:::=&%->>-----%%----&->>%:&: ;&=#OX. .OO# .X+.*>:XO# ++#;#+O   O$O+o.&>->>&&=::&=+..;:;=%%&#.Oo@@oXO=:###;*X## #O$$@@$;&",
"+   @oo$$$OOX.%>%;**;&=:::;OO::;*#:%&-%# ;#O##. O. .#.*%OO#O#+O OO#+   XO* @X&-;##+OO+ ..@X+*Ooo#=-%&:;;:;:%-%==%--: X@ O@@@@@;%",
"*..X@@@..O* @o=>O@.oo $,@oX$@ X@ OO=-%:+ XX##+  ..   .;>*  ## ++OO*OO+#O. .OO&>O@ ## O O ++ X O.o+o#%---%===;;+#;#;%=.@$@.o@$$+&",
"+X oo  . #+@@@&-#.+X$X.$.. X.+ O# .*-:..X  O  X.XX  .X#-;#O#O#+ +O# .O O+O X.&&oX.O X.O+O .Xo++ OOX@ *=%;X.o@$$@@oX#%=*;# **;*;&",
"#X. O O@O+X@o.%=@Oo$@.@.X@X$. O+ o@ =*XOOO OO+#+ .XX.o:-;++##+  .OXXo@  O++  -*@@. Xo X$.  OO+.X ..   +%:@ o@@@@oX.O&-%&&=&->>>-",
"+Oo$ XX.o. X.O=+o o@. o o$oX+OXXXoo;: O XO. OO.O# OOX.=%* ##+  #+#o$#X   . OO>; .+OO O.o@.OOXX..X....X*-:.XooX.oooo+%%:+++O*#;=:",
" .Xo.Xoo@.  .O#X@$oX.. .@@.+ oooX@X==O.o@X.oo.. * +OO*%=.X +OOXX.O#oXX....XX#>;+ +  .X O.o. ooo OOO##oO-&XooXooo.X$+%;@oXoo@@@oo",
"+. o@ O..O+OX*&#o@@oO+Xo+O X@oXXoo ==.O ooX@@.O.# . #+&:... OOOO.. O.@Ooo@X.;>: +.X+.....$@OO.X. O+  + %%# o.ooXXo@*:#$@ooXo@XO+",
"+**#$ #.o.+.XO&:.X@oO*+O  oX..# oXO:=#+ XOXo+ X   +OXO%=+ .++O++OO  XO*o@o#+=>;XO  O# X.X$o.++.OOOOO+Oo=%OX @X.XX@X;;Xo@@X X@.X ",
" ++O .OOX+# ..:;OO  O##O .XXoo+.o@X:=.@oXOoXO O O##. .&&..  O++O#OO.O o$$.O#%>#.:*OOO .@ oX.+o$X ++ O+ =-;*O+; *&;*%=#O +  . #OX",
"++#+##+ .*#++O==OOO+O+ .+ .Xo .O.X :&.@.oXoX .. ..#+##%-+.. O+##+OOXX@@@$o. %>#*#OO+ OX@  o..o@XXO+OO .;--%=->%---%%%%: .+Oo .*.",
"O#*;#OO  *O+#*&&##OOO#++#+oO#.X .OO=-&*+OO..OO##;=%--%>-*.O*+++++OO.o X@@o.O%:O*OO+ .O@.@@  .Xo#.  ..O.#%&::=&=:++;;:&=#+XOOX.  ",
" ++  O*OO+#*;;&=OO ++  #OO O .XX.oo=--%&%&&%%%%---%&&&--:. O  O OOOX$@o$@o.*%;#*+ .:&&# . ++OOO+ X..X*.#&;+O. +* @X.. O:&OX+Oo.+",
"#;O.O +#* #**;%:OOOOOXXO++ O.o@oX@@&>:+++###*;##+O+ .*:-%O  .   OOO.$$.@@oo*%#*;OX :%-:    X@ +*O+  O#**:=**+#+#+o.$oX .:+XX.O#O",
"+# +  #O ##+ *&#++    O.+OoX.oX.@@@&-+X.o.O +OooOXo  +#=-#@+O +O OOOX.OXXO :-+X+##O. ##  **+.*O  ++ oXO=%=*##*O++OX, o@@*;XO##O*",
"&;++ . O+#+#+:%=**O XOO  o   o@@$$$=-*Xooo.#.o.o..o. X.==X OXX...+*+  +O ..;-=*O#**# O +#**##+.XXX  #;&--: O****## *#. .=-;**#:%",
">>%;*;;*;::=&%-%&%%--%=%&=::;#O##+#-% ooX  OOOXo@XXo.X.&= ;;OX   *# .X  o@o=>-&:=;**#++ ++OO O#*:::&->>%%%&&&%%%%%%%%&%%-->>--->",
"%&:=%-%=:&%&=;;=&&->>>----%%%&%--->>%X.ooXX.X.o@@@XXO+ :%=--=**;:==:*#*:O O&------>%==========->--%&=:+ #**;:%>&;:===;:#**:%=;=&",
"OO O=%:+**# ...###*+##%>==; **;;=--&:..o$@ O.O.oX@X +..:------%->>--&&&%:*:-%**##=&---%%--->---%;*O   O.+O. X:%# OoO o,,$XOO####",
"o@ooO=; #++X O*#.Xo@Xo:>*O . . Xo&- .XX.X..X#Oo@oXOOO  =-%:*=&==&&=:;;#:%--%;  .@ .  XO###:;;=& .O#*# X..O * *=+OOO .XO$,  .O#* ",
"Oo.X#=;+*#+XX#*.Xo@@X.#%;o + ooX :>+$@@. Xo@X  oXo ++;+=&*XXX.O.X .X  X ;->: o  Ooo@@X.X..oXX:&O*#;*+ .X.O#; *= XoX.#O O#*X.O+#+",
" X ;*:=##+.  O . O. X+O=;.O. X@XO:>*oX@@Xo... ..##+## X::##; ##o .Xoo.X@.:-O.O. ..Xo#    +XX :%**+#+O#.o *+*.*=.oX  OO@X. + O##O",
" .#. &=+.O. *#.X#OOOX+#&*X .X X@$ && #+..@o .O+###+..o#&:*;:*+ O+@@oo OXX:-+ O OOooO;+O+X.+o@:%*+ ..+O.XO###.&=  +#O. .X@ +X++##",
"O+:  &= O.. #Ooooo..+ &% o .@@o@oX;---=:;;%-%%%&=*##;;;-=XO# .X+ @ XX+X*+=-*X X  o#OO + X O..%%#O. X.  .OOOO.-%  ##O@oX#.O#OO  #",
"*+OO :%X.XO o@oo@oX X#-:@o@o$$@@o.:-%-%&&%----%%%%%%-%&-=++oX# Xo*:.+;## ;-*++ + Ooo.. XOo$@$%-#. . O X ##+.O--#O#.o@@oO**O X..#",
"# ;#o:-* XXoo@@@ O.X@*%;$X+@,$$@+O;%+#OO.OO#   *&%=;:=-%;*#XX OO## O#O+O.:>;X#+++ oXo#+OOXX,,&% . . O+ ++OXX.&-##O.X+.O*#+ O.oo*",
"O##.o=>-=;#O  . ;;**;%%%=&%=+.oX#.:-;X.++OO#+++ =-+O##&%#O##OOX O#+#@@@@ :-#o@#.O+OO$X. OO+,@=%#   ..  .o Oo*-= +*;;# #*+X#+X.o#",
" Xoo*->%%%--&=&%--->>>%%--%=->>->->-*+  O+OOOOX;:&# X+&&**+#+ooX# Xo@. O.;%*.,  #+ o@ ..O  $@&>-%%======&%&=%-*o+;;;#***+*:O X O",
" .$.&-%*#*:;;*;;%-%;:;+ ##X$@+&-->>-###O++O++  O;:#.oO&&+*O *# **#o:# *. ;%;O# + X .o@. #+@o+&-::&%%&&&&%%%---#X#*##***###+  . X",
"##+&-%*.@oX@o.oX=-=..Xooo$$@$$$X :>-*OO+ X..++O ;=#O .=%*..o. ; *# =+ Xo *-;oX .+# o@$.   @o ==O.+;**OOOO#**%-# **OX+##.  O#O + ",
"%->>-#X@@@$oooX :&;X  XoX$o@o@O.oX=-#o.+ O. O+#+*&:O.X:% ooo@ ;. oo .ooXX+%:o@o O.o,,$@@o.o@o=:O    OO#  O#X=-*.#*  O+  X .OO+#:",
"%%-%*@$@X. XXX .:&.@.X@@@@o@$@@@@@:%OXOO OO . O  %- @oO&+@o@@Oo..oo@@oo@@#--=&=&=&&&&==&==;=%&#+O  . *=*++#o=>OoO#OX. ..  oX+#=-",
"#.  @X O@X.ooo. ;&+ooXooo@$,$$X.XX#&O.XX@o . .X.O&%X@oX:#..@O@o@oo@@@@oXo:>>-%&%%%%%&%%==&%->;O.. .O#*&:O. @;%O@@O X XXXXX.#+#%=",
"  ##;+OoX@@@XXX *=+ X  @@o@$@@@Xo@#&Oo@@$@oX@@..+%-X@@X:*  O@@ooooo@$. #+#-% X #;; .oX.o# .+=;..+XO#O+&;X.OX#%*X.#.+ o.    O *%;",
"  . X@oo@ ooo.X #&.ooXOo$o@$$O#o@$#&Ooooo@oXXo.Xo&-o$o+;* +o@Xo@@oo.XO#OX.-&oX;:=*O  O .. X*%;o#O;;#+#+ ###O+-= *Xo Xo. ..X..:-;",
"..$@@$@X$XX. .o.=&o@X@X+O @$oX.@@$#-*X@$o$@o ooXX=%o@...=+oXoXoooooo.#XXOO%=O+*:: .o.X..oo +-;.*#;#OO#++#++  =-&;##*===:;**+ =-;",
"=::O@. oXXooO.X+-%ooX.@ Xo@@@@@@@o%>%:;#O  X@ooo.;& .o@o=&..XXXo@Xo@.Xooo@==;#O+ .oo.o.XoX X&;O O#.. ++OO+OX.+%>%=%---%&&=&%%->%",
"---%.XXX.O X..oO--o@@..X. @@o@$@X+%>>---%%&=:;#O#=& ooXX*>%*;:;##+  OO  O+%:.X**O  .XXo  . X=+.;+#O  ##+*#...  &%****++O O+;;;%-",
"*#&% @ooXOOXoXX.%-$o$o ooo@$@oXX :->::&----->-%%->-::*;;:%%-->>>>>>>-%->>>>%Ooo.Oo.XXoX  +OX:+ O.O XO# ##.. .O #&#.. +#X.O+O.OO#",
". =&X..XX.    Xo&>&&&&===&&:=&&&%->%XX.#**;;=&&&%&-&:*;;* .#O:%=:==&%=&%-&-%#X$XXo...Xoo. . ;+o OX  +OO# OX.X..#=# O+#O. O  OO..",
". =%.XXX. X..ooo&>>>>>>->>->>>>>>>>&@@@$ooXXoXX..O# *;:;.oo@X*%#@O@$oo@.X.:&#O+#+X Xo..X.   ;=XO   O*#O X.XoX. *:O+O+O.  +#+.O..",
" .=- oXo.OXXX$o &-*+ ++**+*;;:::##>-X@@oO@Xo@@@@@oooX$ooX.X$X*%;OO OO.OOo.;%# ;*O...XX#+#  O*-%::=**::;;::=:=:;:&*O OO  X.++  Xo",
".X:% @@@X  .XX.o&%$oo.OoXX@$@,@$,@&-Xo .@@Xo@@$@@@ooooXoX.@,@*%O@O#+o.#Xo@;-;X**X. .X. *;OO+O&>%%>&&%&%%%%-%--->>;. OO o. +OO+.X",
"oo:% @.oX Xo. o >%X @oo  X$@o@o@@@;%X@@@$@o@oo$$@@@X....O X,$*-*Xo@$;;@$@@+-:#O#.XOXO...X.O++=>&###**++#OO*;;;*&>&.O...  +OOOOO.",
" X=% . .. .  o$;>-+ .XoOXo@$@$@@$$:%.@$o@@$$$@o$$XX .o..@X+o@:>;@O#*&;@o@o+%= O ..O. O.ooo +O=-*Xo.O+ X.   .XXo -&@ X.. .####O.X",
"+;>%o@o.Xooo #;%-%: O X$@@$$@$$$,$=-#o o@@o$$o$,@ooX.o.X@@o.o*-*o*=;o@oX OO== XXX O  O o$@X O;;O.X.  . +# .   XX%=@oo O.X.**#+.O",
"%->>%&%-%%%%---%%%& .O o$$@@@$$@$$:-+$@o@o@$o$,,@o$,o@@Xooo@@;%+@*#.o oX . %% .X #+  XoX$$@ O** .   .. .O o   X.%&ooX  OXXO###*&",
"-%&;:==%----%%:O#%%+O .o$@$$$$$$$$ %;o@o@@@$$,$$$o$@oo@@o@XX@:-.@O @$o.  X+>>#Xo +O  .oO..o +:*...... ..O. OOOO.%&o.. XO X++##+%",
"=OX@XXX.  .XOo@oX&=+OoX@@$,$oooo.X.%:oX@ooo,,$,@$ooo@X@@oo  @=-#O.X@@oOOO.X%>%#  XO X O   . :%* O o.  .  ..OO++ &&@XX @X oOO X.%",
": .XX@oX.X@@@o  o==  @@$o,$  o@oXo &=oo$@@$$@@@XX.#.@@XX OOX@=-;.oOX@  OOXo:-%&=:#  o.    o#->:OO  . . .o.X  O X==@Xo @o.oo+ o+-",
";XXX@..Xo@@ooX. o:%OXoX@@o$o@$$$$$o:%O@Xo$@$ @o@X.#@@o+ X.O.X=%* .#O. .OXXX;-&&&&%&;#OOO#;:&%>-%%%%=;*#****#+#;*&=oX .$Xo@XO.o#%",
"+ooO*;#++ o@.o.O.&-+ ooo@@@@$o++@$X:>-*.@ooo,,,o$X@@.##+#;=&%-%;..+OOO   . O=;+:*;:=&=&==%=:=-%&&&=&&=%-%>-&=&%&=*X..oooX+ o.o#%",
"O@O*+OO#*;XXXX.+&%-&;#+.o$@@$X.. *=->---&=&=::&&=&&&==::&-%--&%:. O O .OOO #*#XXO #OO+*#**OOOO+.O+#O##:--&&=#*:==;;;:=::***#**==",
"#XX...XX.O+ .@X+%%->-%=::*;;;;;:&>>>-%-->%%=&%-%&--&::*#*#OOXX==.+OOOO+OO OO::@o..OO.Xo.O OOO+#+*##O.O.=%*@@ . #;:;;:=:==&%&==:;",
"+ .X .o@@ooX .XX*=&%&&=&--%&&%>>>-=+o  OOXo$$@$ O##+**###X$oXX=&XO+###OOO.OO;&O@  . ..XXo +#O+##+OOOO @#&O@o O..  ++ O++;&%*+ +O",
"O. OO Xoooo .Xo@ #O OX +**#OX;&%>=ooXo@@@@@o$@$.X.OO+OOO##o@o.%&$@X #O  .X O:-:@. X.OX.Oo@.O+#++##+OXO$+=#+.O+..X      #O*=+  OO",
"@@.. @XX@@o.X..@#;+  @@@o$oX$@..& oXo@@@$@..@@O X+#++O+++#$$.+-=Xoo@.#o.o@X.#-*oooX OO .$$XO+#*###+OOoX#%#X.++ .oO+OO. +O###Ooo.",
"$oO X@$o@@oX.X o;=#*X$X@oooo@@O =;$@$@$@@@O @@$$X #OOO+X ooXX+*#O $$@ @oX@oX :+@@. OO O  +;*++#OO++.OX@:%.@@.O   ##  O .O;#+ X.@",
" +OXX.@.  . .O  :;OX OOo@oo$$o O==X@$@@$@$oo.XoXo.+.+O.XXoX ,O&%O ;#XoXo.XX##&: O#O +*#*:;;+O++#+OO.ooo:%#.O.X.O #OO   O :;*O@o@",
"++   . O...@@O #=#Xoo@ooo XX@@ #:--&::=:;:&*.oX@o#OO+OXX *==%>->%%>-;O*#OX.X %-*+*##+ . #+#..OO;#OO .o =%#XO  .O++O.X O O=:Oo@@o",
"XX..oXO XXOo$O *&+o # . #Xoo@oXO:-->>%--%->->>-->-%%-%%%->>-&;O++*=-%&%&:::##%-*..XX...O#+ ... OOO.X. .*=OX OO  +O OO++OO== X@oo",
"::;#OXXXo$XooOO&&* O#+O@oo@@$$@o&-O+# ###*;=->>>>-&=&-%->-:+ X.XX@@O**:&=&%&&:&; XoO#**..XXX..    ..XXXO=+o.OO O#+O## OO+=&#@@. ",
"%%%%-&====&&&%%%O @..OO$o .o@$,o=%o@o,@ @@@$X+*#*XX.O.X:>:  O oX.o..XXXXoOo@o &;OO++*# +O.XO.X ..   ..X#=+X. OO###  +++O#&%&*:=&",
"*;===&%&=%-->--%O+$@ooX@@o.$,,$$#-*XO$,o ++$$oo XoXoX$@&%+.XX.XXo.+OOO+X@@,$.X&= O+.@ O O .OXO.XX OO .oO&#X +O+*#*++  +#*&&*;;:=",
"OOO .Xo@@. + *-&X$@$$$o@..X$$,,,#>;,$$$@@. @.@$@.  @X@O-&X .o..XX..  OOXo@$oX &%  OX.*.O+  ..=.@oXO .XX =#XO*O*####OO O+=&*$@o@o",
"#OoXoooo@@@@$o%=@o$$$$o$Xoo,,,,,O-:@,,,$,,@X $@+ .o$X +%%O Oo..oo X.OOXX$@o,@+*-;#*#;# ## XX#:*oooXXX.o :Oo.++O.. .O++O+&&+o@X@.",
".XoX@ooXoXX@$$:&@@$@$$@ Xo,,,,,oO%:.O@$@O$@.o  +# o,X#+&%XXO...XXo@X .  o@o,@*O=%;*;*## #+  *=*XXoX Xoo.:OXX OO. . O++  :&+ O.@o",
"oX .X.OX@ooo  ;-*$@@$@@XoX,, .OO*&:X.@OO o$@@XoO+ o.X.X&%. +X.oX o$Xo@XooXOX*;**&;*#+#OOO##OOO.oo..XooX#:.oXOO..XX.  OO.*= Xoo@$",
"oX XX . X$@@o@ -% ,,,$oXo@,,@X#o =&o$,$$o@@o@@oX  X .@ -%. ..XX.  o@oo@@XO#**+**&:O .. O.OO  #X@@ .X@X;=+  +*.o.@@@oX  o+:.@oX$$",
"@oXoXXXXooo@$$,;%%o$o$$@,$$,$@. O=-+$@o.OXX X$$.$@X@  +>%X..ooXXo  $o@$@oXO..O*#=-:#O O +O;*+O,oXo.+;=%&:#+#O XooX oo.@.:=#+*+@X",
"###*#*##;*;;* .o;%&::;X.@$oX@X##;&-*,.#XoX. .@,X$o$@+o --+X .Xoo@O o@@ ;;;:=;;;;:%=#O X OO  O o###:==&&==&=::*#+O#* .  :&&:*&=:*"
};
